<?xml version="1.0" encoding="UTF-8" standalone="no"?>
<!-- Created with Inkscape (http://www.inkscape.org/) -->

<svg
   xmlns:dc="http://purl.org/dc/elements/1.1/"
   xmlns:cc="http://creativecommons.org/ns#"
   xmlns:rdf="http://www.w3.org/1999/02/22-rdf-syntax-ns#"
   xmlns:svg="http://www.w3.org/2000/svg"
   xmlns="http://www.w3.org/2000/svg"
   xmlns:sodipodi="http://sodipodi.sourceforge.net/DTD/sodipodi-0.dtd"
   xmlns:inkscape="http://www.inkscape.org/namespaces/inkscape"
   width="998.00031"
   height="859.73169"
   id="svg2"
   version="1.1"
   inkscape:version="0.48.4 r9939"
   sodipodi:docname="ghostb.svg">
  <title
     id="title4349">Ghostbusters</title>
  <defs
     id="defs4" />
  <sodipodi:namedview
     id="base"
     pagecolor="#ffffff"
     bordercolor="#666666"
     borderopacity="1.0"
     inkscape:pageopacity="0.0"
     inkscape:pageshadow="2"
     inkscape:zoom="0.5"
     inkscape:cx="1107.3373"
     inkscape:cy="337.86448"
     inkscape:document-units="px"
     inkscape:current-layer="layer3"
     showgrid="false"
     inkscape:window-width="1920"
     inkscape:window-height="1023"
     inkscape:window-x="0"
     inkscape:window-y="27"
     inkscape:window-maximized="1"
     fit-margin-top="0"
     fit-margin-left="0"
     fit-margin-right="0"
     fit-margin-bottom="0">
    <inkscape:grid
       type="xygrid"
       id="grid4347"
       empspacing="5"
       visible="true"
       enabled="true"
       snapvisiblegridlinesonly="true"
       originx="9.094947e-13px"
       originy="8.7900464e-06px" />
  </sodipodi:namedview>
  <metadata
     id="metadata7">
    <rdf:RDF>
      <cc:Work
         rdf:about="">
        <dc:format>image/svg+xml</dc:format>
        <dc:type
           rdf:resource="http://purl.org/dc/dcmitype/StillImage" />
        <dc:title>Ghostbusters</dc:title>
        <cc:license
           rdf:resource="http://creativecommons.org/licenses/publicdomain/" />
        <dc:date>2013-12-28</dc:date>
        <dc:creator>
          <cc:Agent>
            <dc:title>Sven Arvidsson</dc:title>
          </cc:Agent>
        </dc:creator>
        <dc:description>Ghostbusters logo</dc:description>
      </cc:Work>
      <cc:License
         rdf:about="http://creativecommons.org/licenses/publicdomain/">
        <cc:permits
           rdf:resource="http://creativecommons.org/ns#Reproduction" />
        <cc:permits
           rdf:resource="http://creativecommons.org/ns#Distribution" />
        <cc:permits
           rdf:resource="http://creativecommons.org/ns#DerivativeWorks" />
      </cc:License>
    </rdf:RDF>
  </metadata>
  <g
     inkscape:groupmode="layer"
     id="layer6"
     inkscape:label="Background"
     style="display:inline" />
  <g
     inkscape:groupmode="layer"
     id="layer5"
     inkscape:label="Shadow"
     style="display:inline"
     transform="translate(2674.0261,279.85253)" />
  <g
     inkscape:groupmode="layer"
     id="layer4"
     inkscape:label="Sign"
     style="display:inline"
     transform="translate(2674.0261,279.85253)" />
  <g
     inkscape:groupmode="layer"
     id="layer3"
     inkscape:label="Ghost"
     style="display:inline"
     transform="translate(2674.0261,279.85253)">
    <g
       id="g4631">
      <path
         inkscape:connector-curvature="0"
         id="path4536"
         d="m -2151.0263,-279.84818 c 2.9974,-0.006 5.4835,0.13963 7.6875,0.625 1.102,0.24269 2.1297,0.5709 3.125,1 0.9953,0.4291 1.9566,0.96718 2.9063,1.625 0.9496,0.65782 1.8786,1.44614 2.8437,2.375 0.9651,0.92886 1.9584,1.97655 3,3.21875 2.0832,2.4844 4.3693,5.66463 7.125,9.65625 1.7052,2.46991 3.9777,5.49384 6.25,8.375 2.2723,2.88116 4.57,5.59849 6.3125,7.5 l 6.3125,6.9375 9.3437,-2.3125 c 2.5687,-0.63468 5.5624,-1.24986 8.3126,-1.6875 2.7501,-0.43764 5.271,-0.72067 6.875,-0.75 1.8904,-0.0346 3.405,0.0383 4.625,0.28125 1.2199,0.24294 2.1387,0.67599 2.8437,1.34375 0.705,0.66776 1.1856,1.57261 1.5313,2.8125 0.3456,1.23989 0.5457,2.82191 0.6874,4.78125 0.125,1.72722 0.098,3.32904 -0.125,4.875 -0.2227,1.54596 -0.6406,3.02323 -1.2187,4.40625 -0.5781,1.38302 -1.3402,2.69909 -2.2813,3.9375 -0.941,1.23841 -2.0633,2.38788 -3.375,3.5 -1.3023,1.1042 -3.094,2.29968 -5.25,3.5 -2.1559,1.20032 -4.655,2.40859 -7.4062,3.59375 -2.7512,1.18516 -5.7555,2.34752 -8.8438,3.40625 -3.0882,1.05873 -6.2706,2.02273 -9.4374,2.84375 -6.41,1.6618 -13.385,3.81966 -15.5,4.8125 -0.9026,0.42371 -1.5889,0.77559 -2.125,1.125 -0.2431,0.15837 -0.3477,0.36246 -0.5313,0.53125 0.8586,-0.0114 1.7026,-0.0877 2.5625,-0.0937 5.4945,-0.0401 10.9432,0.0344 16.375,0.21875 5.4318,0.18432 10.8535,0.47083 16.2188,0.875 5.3652,0.40417 10.674,0.91176 15.9687,1.53125 5.2947,0.61949 10.5609,1.35721 15.7813,2.1875 5.2203,0.83029 10.3892,1.77593 15.5312,2.8125 5.142,1.03657 10.2527,2.16792 15.3125,3.40625 5.0598,1.23833 10.0889,2.56444 15.0625,4 4.9736,1.43556 9.8977,2.96548 14.7812,4.59375 4.8836,1.62827 9.7104,3.37104 14.5,5.1875 4.7897,1.81646 9.5583,3.71863 14.25,5.71875 4.6918,2.00012 9.3163,4.10199 13.9063,6.28125 4.59,2.17926 9.1407,4.42737 13.625,6.78125 4.4843,2.35388 8.9065,4.78853 13.2813,7.3125 4.3747,2.52397 8.6762,5.15421 12.9374,7.84375 4.2613,2.68954 8.4812,5.46191 12.625,8.3125 4.1439,2.85059 8.2275,5.77414 12.25,8.78125 4.0226,3.00711 7.9777,6.09089 11.875,9.25 3.8974,3.15911 7.7318,6.38091 11.5,9.6875 3.7683,3.306594 7.4899,6.706704 11.125,10.156254 3.6352,3.44955 7.1893,6.94327 10.6876,10.53125 3.4982,3.58798 6.9238,7.24686 10.2812,10.96875 3.3574,3.72189 6.6311,7.52372 9.8438,11.375 3.2126,3.85128 6.3735,7.77386 9.4374,11.75 3.064,3.97614 6.0574,7.99727 8.9688,12.09375 2.9114,4.09648 5.7451,8.25645 8.5,12.46875 2.7549,4.2123 5.4055,8.48891 8,12.8125 2.5945,4.3235902 5.1323,8.6946402 7.5625,13.1250002 2.4302,4.43036 4.7693,8.9048898 7.0313,13.4374998 2.2619,4.53261 4.4413,9.11967 6.5312,13.75 2.0899,4.63033 4.0862,9.30772 6,14.03125 1.9138,4.72353 3.7349,9.50029 5.4688,14.3125 1.7338,4.81221 3.3874,9.66613 4.9374,14.5625 1.0095,-0.38153 2.0763,-0.8418 3.0626,-1.1875 2.8193,-0.98822 5.531,-1.82655 8.1874,-2.53125 2.6565,-0.7047 5.2486,-1.25258 7.7813,-1.6875 2.5327,-0.43492 5.0205,-0.7586 7.4687,-0.9375 2.4483,-0.1789 4.8783,-0.21964 7.2813,-0.15625 1.3258,0.035 2.5629,0.31355 3.7187,0.78125 1.1559,0.4677 2.2128,1.13554 3.125,1.96875 0.9123,0.83321 1.6862,1.80601 2.2813,2.9375 0.5951,1.13149 1.0144,2.41868 1.2187,3.78125 0.3192,2.12823 0.3475,4.06836 0.063,5.90625 -0.1425,0.91895 -0.3453,1.81074 -0.6563,2.6875 -0.311,0.87676 -0.7276,1.73891 -1.2187,2.59375 -0.9823,1.70969 -2.3212,3.38139 -4.0938,5.125 -1.7726,1.74361 -3.9688,3.56033 -6.625,5.5 -1.925,1.40573 -8,6.572356 -13.5,11.499996 -3.428,3.07123 -4.9923,4.1982 -7.2188,5.96875 1.5092,7.62672 2.7709,15.34394 3.8126,23.125 1.0416,7.78106 1.8634,15.62596 2.4687,23.53125 1.5948,0.34615 2.6738,0.54889 5.2813,1.21875 4.2852,1.10092 9.6313,2.55681 15.0937,4.09375 10.9248,3.07388 22.2711,6.48365 26.2813,8.03125 1.0317,0.39816 2.0315,0.87349 3,1.4375 0.9684,0.56401 1.8949,1.20197 2.7812,1.90625 1.7727,1.40855 3.3869,3.05882 4.7188,4.875 1.3318,1.81618 2.384,3.79332 3.125,5.8125 0.3704,1.00959 0.6803,2.04052 0.875,3.0625 0.1946,1.02198 0.2812,2.05372 0.2812,3.0625 0,1.23557 -0.1334,2.30919 -0.4688,3.28125 -0.3353,0.97206 -0.876,1.83379 -1.625,2.625 -0.7489,0.79121 -1.728,1.49447 -2.9687,2.1875 -1.2407,0.69303 -2.7517,1.38498 -4.5625,2.0625 -2.796,1.04611 -5.4333,1.81776 -8.25,2.375 -2.8167,0.55724 -5.8144,0.88673 -9.2188,0.96875 -3.4043,0.082 -7.2224,-0.058 -11.7812,-0.4375 -4.5588,-0.37954 -9.8449,-0.98506 -16.125,-1.8125 -1.6578,-0.21843 -3.606,-0.35424 -5.5,-0.5 -0.2997,8.95209 -0.8099,17.83398 -1.6875,26.625 0.068,0.0554 0.2458,0.16392 0.3125,0.21875 1.0222,0.84049 1.8472,1.62315 2.5938,2.4375 0.7465,0.81435 1.3973,1.65702 2.125,2.65625 1.0245,1.40694 1.8984,2.82984 2.5937,4.25 0.6953,1.42016 1.2194,2.82702 1.5937,4.21875 0.3744,1.39173 0.5946,2.77211 0.6563,4.09375 0.062,1.32164 -0.039,2.60259 -0.2813,3.8125 -0.2424,1.20991 -0.6178,2.34973 -1.1562,3.40625 -0.5384,1.05652 -1.2366,2.01351 -2.0625,2.875 -0.8259,0.86149 -1.8012,1.6252 -2.9063,2.25 -1.105,0.6248 -2.3428,1.12229 -3.7187,1.46875 -1.4205,0.35769 -2.6815,0.61673 -3.875,0.78125 -0.1828,0.0252 -0.3511,0.0107 -0.5313,0.0313 -1.0323,5.61215 -2.1723,11.19392 -3.4374,16.71875 -1.2652,5.52483 -2.6632,11.00574 -4.1563,16.4375 -1.4931,5.43176 -3.0963,10.79203 -4.8125,16.125 -1.7162,5.33297 -3.5343,10.61532 -5.4688,15.84375 -1.9344,5.22843 -3.977,10.41309 -6.125,15.53125 -2.1479,5.11816 -4.4246,10.18535 -6.7812,15.1875 -2.3566,5.00215 -4.8146,9.93209 -7.375,14.8125 -2.5604,4.88041 -5.2094,9.71581 -7.9688,14.46875 -2.7593,4.75294 -5.609,9.44278 -8.5624,14.0625 -2.9535,4.61972 -6.0136,9.14423 -9.1563,13.625 -3.1427,4.48077 -6.3603,8.91391 -9.6875,13.25 -3.3272,4.33609 -6.7744,8.59558 -10.2812,12.78125 -3.5069,4.18567 -7.0997,8.28299 -10.7813,12.3125 -3.6816,4.02951 -7.4297,7.97613 -11.2813,11.84375 -3.8515,3.86762 -7.7958,7.67501 -11.8124,11.375 -4.0167,3.69999 -8.1043,7.31712 -12.2813,10.84375 -4.177,3.52663 -8.4488,6.96497 -12.7813,10.3125 -4.3324,3.34753 -8.7357,6.58731 -13.2187,9.75 -4.483,3.16269 -9.0274,6.24663 -13.6563,9.21875 -4.6288,2.97212 -9.3552,5.84918 -14.125,8.625 -4.7697,2.77582 -9.5941,5.42623 -14.5,8 -4.9058,2.57377 -9.8691,5.07151 -14.9062,7.4375 -5.0371,2.36599 -10.1489,4.59752 -15.3125,6.75 -5.1636,2.15248 -10.4023,4.22302 -15.6875,6.15625 -5.2852,1.93323 -10.6293,3.72926 -16.0312,5.4375 -5.402,1.70824 -10.8611,3.30373 -16.375,4.78125 -5.514,1.47752 -11.0665,2.85269 -16.6876,4.09375 -5.621,1.24106 -11.3079,2.37613 -17.0312,3.375 -5.7233,0.99887 -11.4917,1.87406 -17.3125,2.625 -5.8208,0.75094 -11.6804,1.34647 -17.5937,1.84375 -5.9134,0.49728 -11.8739,0.88712 -17.875,1.125 -6.0012,0.23788 -12.041,0.33976 -18.125,0.3125 -5.6906,-0.0255 -11.3452,-0.15165 -16.9688,-0.40625 -5.6236,-0.2546 -11.2288,-0.64585 -16.7812,-1.125 -5.5525,-0.47915 -11.0545,-1.05087 -16.5313,-1.75 -5.4768,-0.69913 -10.9156,-1.52294 -16.3125,-2.4375 -5.3969,-0.91456 -10.7498,-1.93706 -16.0625,-3.0625 -5.3127,-1.12544 -10.5884,-2.35575 -15.8125,-3.6875 -5.2241,-1.33175 -10.4001,-2.74774 -15.5312,-4.28125 -5.1312,-1.53351 -10.2162,-3.17553 -15.25,-4.90625 -5.0339,-1.73072 -10.0366,-3.54539 -14.9688,-5.46875 -4.9322,-1.92336 -9.7987,-3.95105 -14.625,-6.0625 -4.8263,-2.11145 -9.5965,-4.33001 -14.3125,-6.625 -4.716,-2.29499 -9.3674,-4.68229 -13.9687,-7.15625 -4.6014,-2.47396 -9.1426,-5.03912 -13.625,-7.6875 -4.4825,-2.64838 -8.9222,-5.36926 -13.2813,-8.1875 -4.3591,-2.81824 -8.6435,-5.7352 -12.875,-8.71875 -4.2315,-2.98355 -8.4005,-6.0432 -12.5,-9.1875 -4.0995,-3.1443 -8.1306,-6.35576 -12.0937,-9.65625 -3.9632,-3.30049 -7.865,-6.67288 -11.6876,-10.125 -3.8225,-3.45212 -7.5724,-6.99455 -11.25,-10.59375 -3.6775,-3.5992 -7.2843,-7.25828 -10.8124,-11 -3.5282,-3.74172 -6.9693,-7.55782 -10.3438,-11.4375 -3.3745,-3.87968 -6.6897,-7.83066 -9.9062,-11.84375 -3.2166,-4.01309 -6.3521,-8.07681 -9.4063,-12.21875 -3.0542,-4.14194 -6.0188,-8.35877 -8.9063,-12.625 -2.8874,-4.26623 -5.6897,-8.58278 -8.4062,-12.96875 -2.7165,-4.38597 -5.3339,-8.8426 -7.875,-13.34375 -2.5411,-4.50115 -5.0136,-9.04448 -7.375,-13.65625 -2.3614,-4.61177 -4.6352,-9.28216 -6.8125,-14 -2.1773,-4.71784 -4.261,-9.49315 -6.25,-14.3125 -1.989,-4.81935 -3.86,-9.67745 -5.6563,-14.59375 -1.7962,-4.9163 -3.4945,-9.89755 -5.0937,-14.90625 -1.5992,-5.0087 -3.1022,-10.05972 -4.5,-15.15625 -1.6051,-1.5592 -2.7485,-2.63284 -4.6875,-4.53125 -9.35,-9.1545 -18.7115,-18.1048 -20.8125,-19.875 l -3.8125,-3.21875 -2.9688,3.15625 c -0.6177,0.66134 -1.2046,1.21342 -1.8124,1.65625 -0.6079,0.44283 -1.2325,0.76409 -1.9688,0.9375 -0.7363,0.17341 -1.5595,0.20942 -2.5625,0.0625 -1.003,-0.14692 -2.1856,-0.45059 -3.5937,-0.96875 -2.8164,-1.03632 -6.5768,-2.892 -11.8438,-5.71875 -5.267,-2.82675 -12.0504,-6.63179 -20.875,-11.65625 -10.0486,-5.7214 -18.6877,-10.40625 -19.2188,-10.40625 -0.2655,0 -0.6108,0.37969 -0.9374,0.96875 -0.3267,0.58906 -0.645,1.3875 -0.875,2.28125 -0.2534,0.9847 -0.6957,1.90786 -1.2813,2.6875 -0.5856,0.77964 -1.2976,1.41034 -2.0625,1.78125 -1.2225,0.59282 -3.4629,1.36299 -6.2188,2.15625 -2.7558,0.79326 -6.0266,1.61373 -9.3124,2.375 -3.2859,0.76127 -6.5936,1.44065 -9.4063,1.9375 -2.8127,0.49685 -5.1326,0.8125 -6.4687,0.8125 -2.38,0 -3.81,-0.0945 -4.8126,-0.46875 -0.5012,-0.18714 -0.8782,-0.42037 -1.25,-0.78125 -0.3717,-0.36088 -0.7396,-0.84942 -1.125,-1.4375 -0.4847,-0.73979 -0.8586,-1.51221 -1.125,-2.34375 -0.2663,-0.83154 -0.421,-1.70116 -0.4687,-2.625 -0.048,-0.92384 0.016,-1.88956 0.1875,-2.90625 0.1711,-1.01669 0.4537,-2.07742 0.8438,-3.1875 0.78,-2.22017 1.9991,-4.65298 3.6562,-7.25 1.6571,-2.59702 3.7455,-5.36551 6.2812,-8.34375 3.9575,-4.64814 6.824,-8.36084 8.6563,-11.1875 0.9162,-1.41333 1.5921,-2.6002 2,-3.59375 0.4079,-0.99355 0.5537,-1.77751 0.4687,-2.375 -0.095,-0.67097 -0.5047,-1.30146 -1.25,-1.875 -0.7452,-0.57354 -1.8093,-1.07526 -3.2187,-1.5625 -0.8887,-0.30721 -1.7704,-0.55659 -2.7813,-0.71875 -1.0108,-0.16216 -2.1785,-0.25894 -3.6562,-0.28125 -2.9554,-0.0446 -7.1716,0.20398 -14.0625,0.6875 -4.6766,0.32815 -8.3793,0.51284 -11.375,0.53125 -2.9957,0.0184 -5.2836,-0.14066 -7.1875,-0.5625 -0.9519,-0.21092 -1.8043,-0.49829 -2.5938,-0.84375 -0.7894,-0.34546 -1.5182,-0.75369 -2.2187,-1.25 -1.401,-0.99261 -2.7002,-2.3061 -4.1875,-4 -1.0897,-1.2411 -1.8941,-2.4241 -2.4375,-3.59375 -0.5434,-1.16965 -0.8156,-2.32051 -0.8125,-3.5 0,-1.17949 0.2627,-2.38562 0.8125,-3.65625 0.5498,-1.27063 1.372,-2.61943 2.4687,-4.0625 1.0321,-1.35782 2.8092,-3.20398 5.0626,-5.34375 2.2533,-2.13977 4.9778,-4.54753 7.9687,-7.0625 2.9909,-2.51497 6.2552,-5.14157 9.5,-7.625 3.2448,-2.48343 6.4851,-4.82986 9.5,-6.875 5.0541,-3.42835 9.4125,-6.41872 9.6875,-6.65625 0.2749,-0.23749 0.1495,-0.67656 -0.3125,-1.21875 -0.462,-0.54219 -1.2666,-1.20528 -2.3125,-1.96875 -2.0918,-1.52694 -5.179,-3.40104 -8.6875,-5.3125 -3.5085,-1.91146 -7.425,-3.87144 -11.125,-5.5 -3.7,-1.62856 -7.2084,-2.94678 -9.875,-3.625 -1.5952,-0.40574 -3.3333,-0.96306 -4.8437,-1.53125 -1.5105,-0.56819 -2.7724,-1.13742 -3.4688,-1.59375 -0.816,-0.53467 -1.5627,-1.25585 -2.2188,-2.125 -0.656,-0.86915 -1.2208,-1.86757 -1.6874,-3 -0.4667,-1.13243 -0.8458,-2.39425 -1.0938,-3.71875 -0.248,-1.3245 -0.375,-2.74213 -0.375,-4.1875 0,-1.40366 0.1607,-2.61924 0.5312,-3.71875 0.3706,-1.09951 0.9416,-2.06765 1.7813,-2.96875 0.8397,-0.9011 1.9364,-1.72281 3.3437,-2.53125 1.4074,-0.80844 3.1452,-1.61597 5.2188,-2.4375 1.186,-0.46989 2.2434,-0.82648 3.3438,-1.125 1.1003,-0.29852 2.2185,-0.52303 3.5312,-0.6875 2.6253,-0.32895 5.9882,-0.42078 11.25,-0.4375 3.6305,-0.0115 6.4984,0.004 9.0938,0.21875 2.5953,0.21463 4.9083,0.61149 7.5,1.34375 2.5916,0.73226 5.4429,1.80239 9.0624,3.34375 3.6196,1.54136 8.0085,3.54557 13.6876,6.1875 12.0824,5.62078 82.9359,40.65799 93,45.96875 0.5504,-8.41411 1.3441,-16.72305 2.375,-24.9375 1.0308,-8.21445 2.2846,-16.33993 3.7812,-24.34375 1.4966,-8.00382 3.2397,-15.90528 5.1875,-23.687496 1.9478,-7.78222 4.1156,-15.45036 6.5,-23 2.3844,-7.54964 4.9749,-14.97515 7.7813,-22.28125 2.8063,-7.3061 5.8175,-14.47967 9.0312,-21.53125 3.2137,-7.05158 6.6435,-13.96391 10.25,-20.7499998 3.6065,-6.78609 7.3904,-13.45913 11.375,-19.9687502 3.9846,-6.50962 8.1519,-12.87157 12.5,-19.09375 4.3481,-6.22218 8.8967,-12.29498 13.5938,-18.21875 4.697,-5.92377 9.5623,-11.69811 14.5937,-17.3125 5.0314,-5.61439 10.2114,-11.08097 15.5625,-16.375 5.3511,-5.29403 10.8751,-10.4123 16.5312,-15.375004 5.6562,-4.9627 11.4596,-9.7546 17.4063,-14.375 5.9467,-4.6204 12.0275,-9.07662 18.25,-13.34375 6.2225,-4.26713 12.5787,-8.34712 19.0625,-12.25 0.6015,-1.72847 1.0766,-3.37374 1.25,-4.5 0.2853,-1.85374 0.8796,-4.35032 1.7188,-7.25 0.8391,-2.89968 1.9025,-6.18814 3.0937,-9.5625 1.1912,-3.37436 2.5021,-6.84721 3.8437,-10.125 1.3417,-3.27778 2.7096,-6.3588 4,-8.96875 2.1513,-4.351 4.4692,-8.48646 6.9376,-12.40625 2.4683,-3.91979 5.1056,-7.6175 7.875,-11.09375 2.7693,-3.47625 5.6644,-6.72961 8.7187,-9.75 3.0543,-3.02039 6.2705,-5.8228 9.5937,-8.375 3.3233,-2.5522 6.7677,-4.86581 10.3438,-6.9375 3.5761,-2.07168 7.2809,-3.8899 11.0938,-5.46875 3.8128,-1.57885 7.7475,-2.92632 11.7812,-4 4.0337,-1.07368 8.1679,-1.8813 12.4062,-2.4375 5.8831,-0.77202 8.7538,-1.1414 10,-1.625 0.6232,-0.2418 0.8385,-0.50732 0.8126,-0.875 -0.026,-0.36768 -0.2902,-0.8432 -0.625,-1.46875 -0.462,-0.86325 -0.6263,-1.67065 -0.4376,-2.5 0.1888,-0.82935 0.7249,-1.68327 1.7188,-2.625 0.9939,-0.94173 2.4529,-1.95587 4.4062,-3.15625 1.9534,-1.20038 4.4015,-2.58219 7.4688,-4.1875 6.9772,-3.65163 13.4465,-6.80641 19.4375,-9.5 5.991,-2.69359 11.4985,-4.92059 16.5937,-6.6875 5.0953,-1.76691 9.7726,-3.0659 14.0626,-3.9375 2.1449,-0.4358 4.1956,-0.78214 6.1562,-1 1.9606,-0.21786 3.8374,-0.30867 5.625,-0.3125 z"
         style="fill:#ffffff;fill-opacity:1;stroke:none;display:inline" />
      <g
         id="g4463">
        <g
           style="display:inline"
           id="g4323"
           transform="translate(576,-732)">
          <path
             inkscape:connector-curvature="0"
             id="path4219"
             d="m -2534.5312,744.1875 0.4687,0.375 18.9687,-11.9375 c -5.3386,-5.36335 -10.9104,-10.48586 -16.6874,-15.375 -5.7772,-4.88914 -11.7473,-9.55447 -17.9376,-13.9375 -6.19,-4.38303 -12.5784,-8.49871 -19.1562,-12.34375 -3.2889,-1.92252 -6.6503,-3.78046 -10.0312,-5.5625 -3.3812,-1.78204 -6.8113,-3.48742 -10.2813,-5.125 -3.47,-1.63758 -6.9753,-3.19838 -10.5313,-4.6875 -3.5558,-1.48912 -7.1427,-2.91331 -10.7812,-4.25 -3.6385,-1.33669 -7.3133,-2.60099 -11.0312,-3.78125 -3.7181,-1.18026 -7.4871,-2.2614 -11.2813,-3.28125 -3.7942,-1.01985 -7.6327,-1.95705 -11.5,-2.8125 -3.8673,-0.85545 -7.7502,-1.62543 -11.6875,-2.3125 -3.9373,-0.68707 -7.9335,-1.2978 -11.9375,-1.8125 -4.004,-0.5147 -8.0262,-0.94291 -12.0937,-1.28125 0.4404,0.67787 0.8751,1.3845 1.3124,2.0625 2.0721,3.21188 4.1133,6.44428 6,9.84375 1.8868,3.39947 3.6141,6.95143 5.125,10.84375 0.5214,1.26725 1.9931,5.99078 3.3438,10.8125 0.6754,2.41086 1.336,4.8413 1.8125,6.875 0.4765,2.0337 0.7744,3.68732 0.7813,4.5 0.086,1.79894 -0.1175,2.76761 0.1562,3.25 0.1368,0.2412 0.4047,0.367 0.875,0.40625 0.4703,0.0393 1.1614,-0.0159 2.1562,-0.0937 3.8907,-0.37868 7.6731,-0.64171 11.4063,-0.8125 3.7332,-0.17079 7.3946,-0.25982 11,-0.21875 3.6054,0.0411 7.18,0.21184 10.6875,0.46875 3.5075,0.25691 6.9668,0.61703 10.4062,1.09375 3.4395,0.47672 6.849,1.0495 10.25,1.75 3.4011,0.7005 6.795,1.54049 10.1876,2.46875 3.3925,0.92826 6.7736,1.96501 10.1874,3.125 3.4139,1.15999 6.8476,2.41681 10.3126,3.8125 2.072,0.86292 5.6668,2.49922 9.9062,4.53125 4.2394,2.03203 9.126,4.48639 13.8125,7.03125 4.6865,2.54486 9.1806,5.16108 12.5937,7.5625 1.7066,1.20071 3.1219,2.36445 4.1876,3.40625 1.0656,1.0418 1.759,1.9804 1.9687,2.78125 0,0.30482 -0.4761,0.87078 -1.1875,1.46875 -0.4952,0.41619 -1.1514,0.7855 -1.7812,1.15625 z"
             style="fill:#000000;stroke:none;display:inline" />
          <path
             inkscape:connector-curvature="0"
             id="path4231"
             d="m -2903.75,976.625 c -0.2131,0.0943 -0.4157,0.23747 -0.625,0.28125 -0.4313,0.0902 -0.8489,0.0661 -1.2188,-0.0313 -0.3698,-0.0973 -0.6905,-0.25177 -0.9374,-0.5 -0.247,-0.24823 -0.4376,-0.57493 -0.5,-0.9375 -0.015,-0.62771 -0.5672,-2.1856 -1.4063,-4.21875 -0.8391,-2.03315 -1.956,-4.53523 -3.125,-7.03125 -2.338,-4.99204 -4.8373,-9.9681 -5.5313,-11.15625 -0.451,-0.36448 -0.8232,-0.72116 -1.3437,-1 -0.5205,-0.27884 -1.2031,-0.48678 -2.3437,-0.625 -3.0595,0.40007 -6.2425,1.01858 -9.4688,1.8125 -3.2263,0.79392 -6.4783,1.77251 -9.6875,2.90625 -3.2092,1.13374 -6.3669,2.42423 -9.375,3.84375 -3.0081,1.41952 -5.877,2.97374 -8.5,4.625 -1.538,0.90142 -4.1428,2.71672 -7,4.84375 1.4079,6.61899 3.0596,13.1915 4.9375,19.6875 1.8779,6.496 3.9819,12.91535 6.3438,19.25005 l 49.9374,-31.4063 -0.1562,-0.34375 z"
             style="fill:#000000;stroke:none" />
          <path
             sodipodi:nodetypes="ccccccscscsccccccccccc"
             inkscape:connector-curvature="0"
             id="path4238"
             d="m -2807.5625,1064.0625 -78.0937,49.3125 c 3.0425,3.0273 6.1411,5.9859 9.3124,8.875 3.1717,2.8891 6.4237,5.6933 9.7188,8.4375 0.7488,0.656 4.8427,3.9374 7.8438,6.3125 1.3381,-1.3769 2.6998,-2.7867 3.8437,-3.9688 1.6262,-1.682 3.3963,-3.3045 5.2187,-4.8124 1.8226,-1.5081 3.698,-2.9051 5.5,-4.0626 3.0559,-2.1076 6.8203,-4.442 10.2813,-6.6562 3.461,-2.2142 6.6134,-4.2994 8.4687,-5.875 2.5231,-2.2274 4.7609,-4.5468 6.75,-6.9062 1.9894,-2.3597 3.7168,-4.7717 5.2813,-7.1876 1.5645,-2.4157 2.97,-4.8222 4.2187,-7.2187 1.2488,-2.3965 2.3643,-4.7611 3.4063,-7.0625 0.557,-1.3795 1.1755,-2.5281 1.5937,-3.5 0.2092,-0.486 0.3774,-0.9428 0.4376,-1.3438 0.06,-0.4007 0.041,-0.7668 -0.125,-1.0937 -1.8077,-1.0449 -3.5098,-1.5602 -4.6563,-2.25 -0.4995,-0.1887 -2.1029,-1.3709 -3.5937,-2.5625 -1.4909,-1.1916 -2.875,-2.3989 -2.875,-2.6875 2.9389,-2.0023 5.1538,-3.4806 8.25,-5.3125 z"
             style="fill:#000000;stroke:none" />
        </g>
        <path
           inkscape:connector-curvature="0"
           style="fill:#ea1d24;fill-opacity:1;stroke:none;display:inline"
           d="m -1736.5312,205.6875 c -0.9364,-0.0721 -1.7574,-0.19572 -2.7188,-0.25 -2.906,-0.16408 -5.8879,-0.24857 -8.625,-0.25 -2.7371,-0.001 -5.2167,0.0885 -7.1875,0.25 -1.9708,0.16152 -3.4244,0.39395 -4.0313,0.71875 -0.5319,0.28467 -1.0005,0.78594 -1.3437,1.375 -0.3432,0.58906 -0.5736,1.26592 -0.5625,1.875 0.015,0.82246 0.5185,2.02986 1.3438,3.4375 0.8252,1.40764 1.9834,3.00555 3.3124,4.625 1.3291,1.61945 2.8487,3.26088 4.375,4.71875 1.5264,1.45787 3.0515,2.73333 4.4688,3.65625 4.5336,2.95219 7.2516,4.82512 9.2812,6.46875 0.8776,-8.79102 1.3879,-17.67291 1.6876,-26.625 z"
           id="path4112" />
        <path
           style="fill:#ea1d24;fill-opacity:1;stroke:none;display:inline"
           d="m -1743.75,114.78125 c -1.3458,1.07021 -4.0443,3.47281 -4.375,3.59375 -0.5185,0.1896 -1.2906,0.81236 -2.25,1.78125 -0.9594,0.96889 -2.0945,2.28317 -3.3438,3.8125 -2.4984,3.05866 -5.4357,7.01262 -8.1874,11 -2.7518,3.98738 -5.3282,7.99088 -7.125,11.15625 -0.8985,1.58268 -1.5981,2.95108 -2.0313,4 -0.4332,1.04892 -0.5894,1.76619 -0.4063,2.0625 0.2446,0.39568 0.6604,0.80945 1.25,1.21875 0.5897,0.4093 1.3556,0.83823 2.25,1.25 1.789,0.82353 4.1398,1.63984 6.9063,2.40625 2.7665,0.76641 5.9221,1.47377 9.3437,2.09375 3.4217,0.61998 7.1206,1.14701 10.875,1.53125 0.4561,0.0467 2.357,0.52929 3.375,0.75 -1.2107,-15.81058 -3.263,-31.40281 -6.2812,-46.65625 z"
           id="path4110"
           inkscape:connector-curvature="0" />
        <path
           style="fill:#ea1d24;fill-opacity:1;stroke:none;display:inline"
           d="m -2499.8438,296.6875 c 44.7298,163.0891 193.6836,282.3715 375.7813,283.1875 194.6903,0.8723 348.1535,-135.4736 381.1875,-315.0625 -0.9861,0.11157 -1.9644,0.1851 -2.9375,0.15625 -1.1595,-0.0344 -2.3376,-0.16725 -3.6563,-0.40625 -1.3186,-0.239 -2.7666,-0.58191 -4.4374,-1.03125 -2.0207,-0.54341 -4.02,-1.21805 -6.0626,-2.09375 -2.0425,-0.8757 -4.1259,-1.95224 -6.3437,-3.25 -2.2178,-1.29776 -4.5785,-2.81542 -7.125,-4.625 -2.5465,-1.80958 -5.2838,-3.90132 -8.3125,-6.3125 -6.827,-5.43508 -11.7109,-9.09618 -15.7812,-11.71875 -2.0352,-1.31129 -3.893,-2.37299 -5.6563,-3.25 -1.7633,-0.87701 -3.4491,-1.56554 -5.2187,-2.1875 -2.0538,-0.72183 -4.001,-1.25595 -5.9688,-1.5625 -1.9678,-0.30655 -3.9514,-0.40502 -6.0938,-0.28125 -2.1423,0.12377 -4.4226,0.4621 -7,1.03125 -2.5773,0.56915 -5.4457,1.37667 -8.7187,2.40625 -6.7902,2.136 -12.7201,3.85409 -18,5.15625 -3.257,0.80328 -5.9177,1.18289 -8.75,1.6875 C -1884.9368,358.8021 -1995.5073,461 -2124.0625,461 c -71.3874,0 -136.9115,-31.1884 -185.5937,-79.625 l 435.8124,-275.15625 c 0.062,0.18339 0.095,0.37893 0.1563,0.5625 0.2231,-0.20002 0.3856,-0.45456 0.625,-0.625 l 2.8437,-2.03125 2.625,3.09375 c 0.5673,0.67419 1.0591,1.21625 1.5938,1.65625 0.5347,0.44 1.093,0.78042 1.7812,1.0625 1.3765,0.56416 3.2682,0.89113 6.375,1.28125 2.3933,0.30051 4.7502,0.48452 7.125,0.53125 2.3749,0.0467 4.7462,-0.0577 7.1563,-0.28125 2.4101,-0.22357 4.8761,-0.58335 7.375,-1.09375 2.4989,-0.5104 5.046,-1.155 7.6875,-1.96875 2.6415,-0.81375 5.3499,-1.80387 8.1875,-2.9375 2.8376,-1.13363 5.7876,-2.40496 8.875,-3.875 6.1749,-2.94009 12.9102,-6.58387 20.4063,-10.96875 7.7261,-4.5195 14.7869,-8.33827 21.3124,-11.53125 3.2628,-1.59649 6.3849,-3.05827 9.4063,-4.34375 1.9645,-0.83579 3.8114,-1.50964 5.6875,-2.21875 -49.6012,-156.68373 -194.3331,-271.43791 -370.1562,-270.15625 -0.8599,0.006 -1.704,0.0823 -2.5626,0.0937 -0.2214,0.20361 -0.5054,0.3805 -0.6562,0.625 -0.2758,0.44718 -0.441,0.97047 -0.5625,1.6875 -0.1215,0.71703 -0.2079,1.6223 -0.2813,2.78125 -0.089,1.40575 0.1204,3.89334 0.5313,6.875 0.4109,2.98166 1.0382,6.47118 1.7813,9.8125 1.2132,5.45515 1.8415,8.57091 2.0624,11.65625 0.1105,1.54267 0.1078,3.07203 0.031,4.875 -0.077,1.80297 -0.2147,3.89947 -0.4375,6.53125 -0.442,5.22064 -0.5866,10.28185 -0.4062,15.25 0.1803,4.96815 0.6808,9.84348 1.5,14.65625 0.8191,4.81277 1.963,9.55801 3.4374,14.3125 1.4745,4.75449 3.26,9.51918 5.4063,14.3125 1.8709,3.75243 3.902,7.20172 5.9687,10.53125 1.6305,2.6267 3.2913,5.15408 4.9376,7.6875 65.0822,5.41342 122.2271,33.65573 164.9374,76.5625 L -2377.5315,276.375 c -4.7236,-12.66914 -8.4656,-25.69957 -11.2813,-38.93755 -0.1513,0.1126 -0.2219,0.13536 -0.375,0.25 -3.0451,2.28027 -6.4369,4.95817 -9.4375,7.46875 -6.0012,5.02116 -13.9775,11.17592 -17.75,13.6875 -2.3647,1.57439 -5.1671,3.25553 -8.1562,4.9375 -2.9892,1.68197 -6.1853,3.38903 -9.375,4.9688 -3.1898,1.5797 -6.377,3.0448 -9.3438,4.3125 -2.9668,1.2676 -5.7112,2.3167 -8.0312,3.0625 -2.1305,0.6847 -4.0641,1.4407 -5.4688,2.0937 -1.4047,0.653 -2.2804,1.2253 -2.2812,1.5313 0,0.6118 1.3781,4.4368 3.0624,8.5 1.1123,2.6829 1.9793,4.9942 2.5938,7.0625 0.6145,2.0682 0.995,3.8824 1.125,5.5 0.13,1.6175 0,3.044 -0.3438,4.375 -0.3414,1.3309 -0.9191,2.5729 -1.7187,3.7812 -0.5837,0.882 -1.2244,1.7 -1.9375,2.4375 -0.7131,0.7375 -1.4906,1.3814 -2.3125,1.9688 -0.8219,0.5874 -1.6838,1.0997 -2.5937,1.5312 -0.91,0.4316 -1.8663,0.7925 -2.8438,1.0625 -0.9775,0.27 -1.9757,0.4597 -3,0.5625 -1.0243,0.1028 -2.0745,0.1015 -3.125,0.031 -1.0505,-0.07 -2.1001,-0.2199 -3.1562,-0.4687 -1.0562,-0.2489 -2.1153,-0.5981 -3.1563,-1.0313 -1.8655,-0.7763 -3.4193,-1.4522 -4.9687,-2.3437 -1.5495,-0.8916 -3.1022,-1.982 -5,-3.5313 -1.8979,-1.5493 -4.1207,-3.5631 -7.0313,-6.3125 -1.6805,-1.5874 -4.2135,-4.0575 -6.4063,-6.1875 z"
           id="path4094"
           inkscape:connector-curvature="0" />
        <path
           style="fill:#ea1d24;fill-opacity:1;stroke:none;display:inline"
           d="m -2328.9062,-141.09375 c -103.7408,62.44613 -174.974,172.21807 -183.7813,306.84375 0.118,0.0622 0.9929,0.47736 1.0937,0.53125 0.845,0.45146 2.0548,0.90865 3.3438,1.3125 1.289,0.40385 2.6391,0.74497 3.75,0.90625 l 4.0625,0.59375 21.0625,-19.25 c 11.595,-10.57549 24.404,-21.91875 28.4375,-25.21875 2.4524,-2.00648 4.8359,-4.15389 7.2813,-6.59375 2.4453,-2.43986 4.9362,-5.17529 7.625,-8.34375 2.6887,-3.16846 5.5673,-6.77646 8.75,-10.96875 3.1826,-4.19229 6.6666,-8.95741 10.5937,-14.46875 4.3225,-6.06619 8.1288,-11.21498 11.6563,-15.6875 3.5274,-4.47252 6.7696,-8.28249 10.0312,-11.71875 3.2616,-3.43626 6.5377,-6.48009 10.0625,-9.4375 3.5248,-2.95741 7.3079,-5.80777 11.625,-8.84375 0.3279,-0.23063 0.5471,-0.4956 0.625,-0.8125 0.078,-0.3169 0.01,-0.71373 -0.2187,-1.25 -0.4578,-1.07254 -1.568,-2.68893 -3.5938,-5.4375 -2.0286,-2.75236 -3.8945,-5.6161 -5.5938,-8.5625 -1.6992,-2.9464 -3.2315,-5.99189 -4.5937,-9.09375 -1.3622,-3.10186 -2.5765,-6.28126 -3.5937,-9.5 -1.0173,-3.21874 -1.8354,-6.4842 -2.5,-9.78125 -0.6647,-3.29705 -1.1646,-6.60073 -1.4688,-9.9375 -0.3042,-3.33677 -0.439,-6.69333 -0.375,-10.03125 0.064,-3.33792 0.3412,-6.66826 0.7812,-9.96875 0.4401,-3.30049 1.0512,-6.58802 1.875,-9.8125 0.666,-2.60661 1.4138,-5.09709 2.25,-7.5625 0.8363,-2.46541 1.7511,-4.90532 2.8126,-7.3125 1.0614,-2.40718 2.2524,-4.78682 3.5937,-7.21875 1.3413,-2.43193 2.8553,-4.89784 4.5313,-7.4375 1.6759,-2.53966 3.5284,-5.1759 5.5937,-7.90625 2.0653,-2.73035 4.3343,-5.55848 6.8437,-8.5625 5.0189,-6.00805 10.9699,-12.64942 18.0938,-20.25 2.4844,-2.65067 6.114,-7.27039 9.4375,-11.90625 3.3235,-4.63586 6.3471,-9.28431 7.6875,-11.96875 0.7719,-1.54589 1.5613,-3.43708 2.1875,-5.21875 0.017,-0.0478 0.015,-0.0773 0.031,-0.125 z"
           id="path4090"
           inkscape:connector-curvature="0" />
        <path
           style="fill:#231e20;fill-opacity:1;display:inline"
           d="m -2280.588,406.6427 -2.1247,-1.7055 3.7718,-3.9016 c 3.2523,-3.3642 7.1142,-6.5564 10.7184,-8.8711 6.1117,-4.2153 15.0444,-9.3887 18.7554,-12.5398 10.0921,-8.9096 15.4782,-19.1792 19.6461,-28.3848 1.1139,-2.759 2.5615,-4.6134 1.8995,-5.9211 -1.8076,-1.0449 -3.4947,-1.5668 -4.6412,-2.2566 -0.999,-0.3773 -6.4631,-4.6664 -6.4631,-5.2437 3.074,-2.0943 5.2915,-3.6048 8.6239,-5.5577 l 15.6118,7.7637 c 36.5351,18.1687 70.2853,28.4539 98.7643,30.0978 14.043,0.8107 17.3394,1.4765 16.7126,3.3756 -1.1279,3.4174 -33.8572,2.2603 -54.6566,-1.9323 -15.0599,-3.0357 -34.5435,-9.3874 -50.131,-16.3429 -6.2837,-2.8039 -12.359,-5.098 -13.5006,-5.098 -2.725,0 -5.683,3.3456 -8.3182,9.4077 -3.2587,7.4968 -10.2756,17.5683 -15.8875,22.8035 -2.7775,2.5912 -9.7005,7.7036 -15.3844,11.3609 -5.6839,3.6574 -12.8863,8.8498 -16.0053,11.5388 -3.1191,2.689 -4.7566,3.1816 -4.9375,3.1571 -0.181,-0.025 -1.2851,-0.812 -2.4537,-1.75 z m -195.8488,-91.5674 c -7.4618,-3.1051 -9.7378,-4.9631 -28.089,-22.9305 -9.35,-9.1545 -18.719,-18.0929 -20.82,-19.8631 l -3.8199,-3.2187 -2.9504,3.1584 c -4.9422,5.2907 -7.3526,4.4037 -42.651,-15.69414 -10.0486,-5.7214 -18.7047,-10.40254 -19.2358,-10.40254 -0.5312,0 -1.342,1.4625 -1.802,3.25 -0.5067,1.9694 -1.831,3.73236 -3.3609,4.47418 -4.8902,2.37127 -26.0597,7.27582 -31.4045,7.27582 -4.76,0 -5.6197,-0.32091 -7.161,-2.67325 -3.8778,-5.91831 -0.7698,-14.764 9.3731,-26.67697 7.915,-9.29629 11.4566,-14.7598 11.1168,-17.14978 -0.1908,-1.34193 -1.6668,-2.47788 -4.4856,-3.45236 -3.5547,-1.22883 -6.7082,-1.27645 -20.4901,-0.3094 -18.7066,1.3126 -21.6097,0.66936 -27.5587,-6.10624 -4.3587,-4.96439 -4.3479,-9.03197 0.039,-14.80426 4.1281,-5.4313 19.9616,-18.74517 32.0214,-26.92573 5.0541,-3.42835 9.4143,-6.4277 9.6893,-6.66523 2.1996,-1.89992 -21.6346,-14.88523 -32.301,-17.59811 -3.1905,-0.81148 -6.9406,-2.22215 -8.3335,-3.13482 -3.264,-2.13867 -5.3655,-7.238 -5.3655,-13.01948 0,-5.61466 2.5705,-8.37307 10.8649,-11.65919 4.7441,-1.87956 7.6116,-2.23885 18.1351,-2.27229 14.5221,-0.0461 16.6362,0.55119 39.3525,11.1189 12.2241,5.68666 85.3694,41.81796 94.0752,46.4699 1.6898,0.90293 4.8901,1.9056 7.1118,2.22816 l 4.0396,0.58647 21.0819,-19.22816 c 11.595,-10.57549 24.3819,-21.92816 28.4154,-25.22816 9.8097,-8.02592 18.5603,-18.33798 34.2687,-40.38334 17.2898,-24.26478 26.1036,-33.55051 43.3718,-45.69444 1.3118,-0.92253 0.8507,-2.00285 -3.2009,-7.5 -16.2288,-22.01891 -22.0435,-50.86431 -15.4531,-76.66014 5.3274,-20.85288 15.2305,-35.85977 43.7261,-66.26208 4.9688,-5.30135 14.4381,-18.50969 17.1189,-23.87858 1.5438,-3.09178 3.0984,-7.51523 3.4547,-9.82988 1.1413,-7.41497 7.5195,-25.48247 12.6812,-35.92228 17.2101,-34.80802 44.8228,-56.0144 78.7299,-60.46397 11.7661,-1.54404 11.5375,-1.45533 10.1983,-3.95751 -1.848,-3.45302 0.8925,-6.04972 13.1616,-12.47096 27.9087,-14.60654 47.566,-21.42323 61.8664,-21.45388 11.9897,-0.0257 15.6778,2.52908 26.7004,18.49557 3.4103,4.93982 9.0519,12.09305 12.5369,15.89607 l 6.3364,6.91457 9.3404,-2.30793 c 5.1372,-1.26936 11.9651,-2.35592 15.173,-2.41458 7.562,-0.13826 9.1378,1.35425 9.7047,9.19163 0.4997,6.90887 -1.7512,12.29439 -6.998,16.74287 -5.2093,4.41681 -18.2808,10.04766 -30.9483,13.33176 -6.41,1.6618 -13.385,3.83379 -15.5,4.82663 -3.6104,1.69482 -3.8646,2.10698 -4.1581,6.74276 -0.1779,2.8115 0.8114,9.99108 2.2976,16.67371 2.4265,10.91029 2.5427,12.53294 1.6515,23.06006 -1.7679,20.88256 1.3763,39.35676 9.9616,58.53006 7.4836,15.00972 17.2961,25.41526 23.34,40.98452 1.0427,2.53451 5.9107,18.92875 5.9379,22.17949 0.1731,3.59787 -0.8083,3.8843 3.171,3.57271 31.1254,-3.02944 56.7334,0.53002 84.453,11.69556 8.288,3.45168 40.797,18.88132 42.4748,25.28814 0,0.60965 -1.934,2.2619 -3.7576,3.13153 -3.2857,1.56683 -3.3739,1.54324 -9.75,-2.60757 -15.6897,-10.21394 -41.8133,-21.86076 -61.4672,-25.88109 -13.9211,-2.84766 -35.0706,-4.48936 -46.6504,-3.62118 l -9.6228,0.72144 -1.1366,5.77725 c -5.1048,25.94749 -19.3452,51.96226 -35.9076,65.59739 -3.0081,2.47637 -5.6789,4.29272 -5.9353,4.03633 -0.2564,-0.25638 2.2165,-4.2044 5.4954,-8.77338 13.5375,-18.86411 21.6474,-35.00671 25.7885,-51.33143 6.343,-25.00498 3.7172,-40.74539 -10.7889,-64.67298 -13.743,-22.66902 -21.132,-39.40794 -23.737,-53.77334 -1.4417,-7.95097 -1.3967,-23.55151 0.09,-31.10744 2.7307,-13.87971 -1.3041,-28.1673 -13.05,-46.21195 -8.0869,-12.42339 -7.3146,-13.79862 2.5799,-4.59378 6.5515,6.09482 6.5788,6.108 7.7533,3.75 1.9868,-3.98887 12.8088,-8.63986 26.6217,-11.44132 20.3338,-4.124 27.6978,-8.64829 31.4677,-19.33324 2.8694,-8.1328 -1.1036,-10.57754 -10.6794,-6.57141 -3.4585,1.44694 -7.0758,2.87427 -8.0383,3.17186 -2.2041,0.68146 -2.2461,3.10216 -0.095,5.47906 1.5749,1.74025 1.4765,1.82874 -2.0332,1.82874 -4.7395,0 -12.0758,-3.73369 -17.3021,-8.80571 -6.2024,-6.01912 -12.3197,-14.12968 -12.3197,-16.33375 0,-2.34197 -2.3881,-7.16546 -5.7138,-11.54087 -4.9763,-6.54703 -22.8203,-9.42902 -35.3472,-5.70893 -8.044,2.38884 -21.9647,9.72218 -45.9321,24.19679 -1.2689,0.76633 -1.2881,1.14878 -0.1276,2.5471 0.9529,1.14813 2.966,1.64537 6.6614,1.64537 2.9126,0 6.0075,0.27314 6.8775,0.60699 3.0895,1.18554 1.5132,2.39351 -3.1682,2.4279 -2.6125,0.0192 -8.35,0.68947 -12.75,1.48952 -4.4,0.80005 -13.4,2.38812 -20,3.52906 -19.5447,3.37868 -29.8888,8.54005 -42.9816,21.44653 -13.7939,13.59751 -25.7104,34.31992 -34.5033,60 -6.5661,19.17657 -12.098,27.96906 -33.0311,52.5 -15.8242,18.54389 -22.5818,28.17831 -28.7194,40.94558 -7.8231,16.27379 -9.3777,21.21915 -9.9962,31.80086 -1.1593,19.83194 6.8798,38.05827 31.2559,70.86327 9.1055,12.25403 9.8822,13.5292 10.8974,17.89029 0.6055,2.60122 -0.6057,1.70758 -9.1117,-6.72276 l -9.81,-9.72276 -8.4626,4.72276 c -10.0784,5.62448 -15.4831,10.83887 -23.5267,22.6985 -10.7657,15.87287 -24.8756,30.89125 -57.0107,60.68142 -10.45,9.68744 -23.725,22.4509 -29.5,28.36324 l -10.5,10.74972 4,1.36685 c 5.0965,1.74154 8.5,3.50527 8.5,4.40478 0,0.38709 -2.3393,0.92857 -5.1984,1.20329 -11.9899,1.15208 -40.4644,-10.72396 -85.935,-35.84145 -23.3113,-12.8769 -46.5923,-24.39689 -49.3542,-24.42158 -1.1068,-0.01 -6.7374,-1.1268 -12.5124,-2.48201 -14.346,-3.36655 -22.0615,-3.3002 -29.0707,0.25 -4.2005,2.12759 -5.4971,3.33342 -5.7291,5.32772 -0.4986,4.28738 2.6345,6.49572 18.1276,12.77707 21.5954,8.75541 31.3036,15.71075 36.1297,25.8845 0.9811,2.06839 2.6296,5.42486 3.6632,7.45883 3.9874,7.84645 1.7337,7.77649 -4.4117,-0.13696 -6.8619,-8.83621 -7.281,-8.92514 -15.5915,-3.30845 -3.8633,2.61101 -13.5701,10.27956 -21.5708,17.04122 -12.2964,10.39212 -14.5467,12.72425 -14.5467,15.07568 0,1.65794 0.9883,3.71019 2.4462,5.07988 l 2.4463,2.29811 15.8037,-1.76115 c 18.0153,-2.00759 22.4777,-1.52886 33.254,3.56751 6.552,3.09863 18.4341,11.89903 19.3745,14.34967 1.0742,2.7994 -0.7021,2.4026 -8.7684,-1.95879 -9.18,-4.96352 -11.5563,-5.45604 -11.5563,-2.39518 0,3.55316 -3.0609,8.20992 -10.4841,15.95034 -3.956,4.125 -7.9404,8.61263 -8.8543,9.97251 -2.2062,3.2829 -2.2595,11.58406 -0.08,12.4205 3.2274,1.23847 8.1444,0.4991 16.4182,-2.4688 4.675,-1.67696 10.075,-3.51773 12,-4.09059 4.8139,-1.43255 6,-2.60829 6,-5.94747 l 0,-2.86896 6.75,2.53895 c 3.7125,1.39642 11.7,5.41101 17.75,8.9213 14.4822,8.40274 21.7503,11.92087 28.8149,13.94779 7.0666,2.02752 9.9387,1.43326 9.106,-1.88415 -0.922,-3.67356 1.2413,-3.94417 7.3827,-0.92354 4.4171,2.17255 9.9635,7.09701 24.6964,21.92691 16.6325,16.7421 19.9201,19.5819 26.3844,22.7904 4.0614,2.0158 7.9522,3.6652 8.6464,3.6652 2.4109,0 7.4692,-6.9095 7.4692,-10.2028 0,-1.7232 -2.25,-7.975 -5,-13.8928 -2.75,-5.9178 -5,-11.8474 -5,-13.1769 0,-3.0786 5.9558,-14.79863 8.202,-16.14024 2.7149,-1.62151 2.8907,-0.33683 0.7313,5.34602 -1.1105,2.92277 -1.7601,5.57322 -1.4434,5.88992 1.1835,1.1835 11.4511,-1.7861 23.0392,-6.66333 9.8472,-4.14455 13.8247,-6.51027 22.4209,-13.33545 29.8436,-23.69528 52.84,-34.17562 79.9507,-36.43656 5.8386,-0.48693 8.4684,-0.32648 9.5649,0.58357 2.3248,1.92938 0.8641,3.02852 -4.0246,3.02852 -3.0751,0 -4.441,0.4178 -4.441,1.35834 0,0.74709 2.4527,6.48459 5.4504,12.75 4.9242,10.29196 5.9794,12.94983 4.4963,14.07916 -1.7254,1.25717 -3.6967,0.57529 -3.9467,-0.875 -0.061,-2.51085 -8.6886,-20.03545 -10.0764,-22.41174 -0.902,-0.72895 -1.3923,-1.34161 -3.6736,-1.61805 -12.238,1.60028 -26.5465,6.56751 -37.0384,13.17256 -3.2389,1.89828 -10.799,7.55964 -16.8003,12.58081 -6.0012,5.02116 -13.9978,11.18432 -17.7703,13.6959 -9.459,6.29755 -25.6078,14.29507 -34.8879,17.27797 -4.2608,1.3695 -7.7483,2.9907 -7.75,3.6025 0,0.6119 1.3751,4.4369 3.0595,8.5 4.4491,10.7319 4.8635,15.8897 1.665,20.7231 -4.6694,7.0559 -13.8102,9.5807 -22.1386,6.115 z m 722.5233,-51.53113 c -8.0825,-2.17366 -15.7265,-6.64655 -27.8412,-16.29126 -13.654,-10.87016 -19.5693,-14.68144 -26.6477,-17.16929 -8.2149,-2.88732 -14.7,-2.51263 -27.7919,1.6057 -27.1606,8.54401 -40.2884,10.17497 -54.9881,6.83158 l -7.0515,-1.60381 -12.6459,5.99938 c -23.5075,11.15218 -40.0643,15.05685 -49.9385,11.77718 -10.2791,-3.41419 -14.1485,-9.19269 -14.1855,-21.18457 -0.019,-6.15828 0.4453,-8.04189 3.4513,-14 1.9103,-3.7864 7.3427,-11.71245 12.072,-17.61344 4.7292,-5.90099 8.332,-11.16036 8.0063,-11.68748 -0.3258,-0.52712 -4.0707,-3.05448 -8.322,-5.61637 -4.2513,-2.56188 -9.1867,-6.04806 -10.9676,-7.74705 -3.0365,-2.89681 -3.1357,-3.20207 -1.595,-4.90455 3.1593,-3.49102 6.722,-2.05705 18.719,7.5344 2.0258,1.61959 4.9296,2.91468 6.7266,3 2.8747,0.13649 3.266,-0.21321 4.3067,-3.84987 1.58,-5.52069 4.1422,-5.42715 3.902,0.14245 -0.247,5.72778 -3.9426,12.52477 -12.7785,23.50209 -4.1418,5.1455 -8.9925,12.05546 -10.7794,15.35546 -2.9127,5.379 -3.2497,6.85126 -3.2562,14.22474 -0.01,7.63362 0.1895,8.42163 2.7296,10.96413 2.5403,2.54259 3.442,2.7677 12.5527,3.13364 13.9248,0.55929 19.2133,-1.06144 43.9744,-13.47631 20.1681,-10.11205 21.5952,-10.6662 27.695,-10.75382 11.5492,-0.1659 10.9948,4.64507 -0.8404,7.29369 -9.7912,2.19117 -6.6948,4.23621 6.355,4.19721 9.6856,-0.0289 18.814,-2.14386 33.0754,-7.66309 8.781,-3.39829 10.0183,-3.62216 17.4511,-3.15748 13.088,0.81823 23.1686,5.83789 46.4668,23.13821 15.3345,11.3868 23.5945,15.59908 30.5889,15.59908 6.7152,0 9.9777,-1.45934 11.5049,-5.14624 2.7036,-6.52706 -1.0232,-13.82884 -10.8267,-21.21262 -12.3957,-9.33618 -15.7898,-12.41696 -19.3726,-17.5841 -2.0668,-2.9808 -4.4938,-5.83149 -5.3932,-6.33485 -1.4686,-0.82184 -1.4128,-1.15214 0.5466,-3.23788 6.7837,-7.2209 22.2813,-9.13625 45.2511,-5.59259 32.186,4.96551 46.2771,0.67376 41.2247,-12.55586 -3.9037,-10.2216 -13.75,-14.38045 -56.4905,-23.86016 -9.075,-2.01281 -19.875,-4.73752 -24,-6.05491 -4.125,-1.31739 -7.8171,-2.401 -8.2047,-2.40802 -0.3876,-0.007 -1.0038,1.58177 -1.3694,3.53066 -0.5142,2.74066 -0.085,4.66132 1.8952,8.47772 3.624,6.98501 0.6269,7.84846 -5.2894,1.52387 l -1.7612,-2.72701 0.9862,-8.11481 c 2.4718,-20.33938 17.8137,-37.89617 50.9787,-66.48468 11.453,-9.87254 13.1658,-12.63141 10.6381,-17.13476 -2.1181,-3.77371 -5.535,-5.05255 -13.5438,-5.06902 -12.2378,-0.0252 -32.3977,8.30307 -62.8297,25.95543 -32.604,18.91225 -36.154,20.64297 -48.0703,23.43553 -6.0886,1.42686 -13.2886,2.57628 -16,2.55426 -4.6988,-0.0382 -4.8126,-0.10243 -2.4297,-1.3721 1.375,-0.73264 4.6181,-1.63929 7.2069,-2.01478 2.5888,-0.37548 5.7388,-1.52007 7,-2.54353 l 2.2931,-1.86083 -2.8209,-0.71056 c -3.6675,-0.92381 -9.5971,-0.10338 -23.4735,3.24788 -11.6944,2.82425 -14.2983,2.64779 -15.0202,-1.01789 -0.214,-1.08659 0.7455,-1.87033 3,-2.45061 2.5779,-0.66349 3.3844,-1.44656 3.6289,-3.523 0.1825,-1.55062 1.5066,-3.51893 3.1585,-4.69521 l 2.8444,-2.02533 2.6073,3.09863 c 2.2691,2.69675 3.5333,3.21489 9.7471,3.99513 19.1461,2.40407 36.8444,-3.04822 66.8284,-20.58776 30.9045,-18.07799 50.9492,-25.10398 70.1733,-24.59689 5.3033,0.13989 9.5412,4.01046 10.3586,9.46072 1.2765,8.51291 -1.9072,14.05461 -12.5319,21.8133 -1.925,1.40573 -8,6.58759 -13.5,11.51523 -5.5,4.92765 -10.7182,9.22202 -11.5961,9.54305 -4.1477,1.51683 -24.8206,31.47224 -23.3556,33.8427 1.9563,3.16541 15.6013,6.9455 30.6191,8.48245 4.6838,0.47935 42.0309,10.9876 50.0512,14.08279 8.2538,3.18526 14.7814,12.08691 14.7814,20.15719 0,4.94226 -2.3697,7.44579 -9.613,10.15586 -11.1839,4.18443 -20.2665,4.40326 -45.387,1.09351 -9.9096,-1.30564 -25.6382,-1.31389 -28.0657,-0.0147 -1.0639,0.56935 -1.9161,2.03185 -1.8938,3.25 0.06,3.28983 7.8276,12.75465 13.4969,16.44634 9.373,6.10347 11.4085,7.77718 14.319,11.77411 8.1962,11.25555 5.7221,23.60044 -5.2853,26.37214 -5.682,1.43076 -8.7755,1.33905 -15.4588,-0.45832 z M -2246.0258,63.10041 c -3.4124,-1.21119 -6.8041,-3.35647 -8.9358,-5.65199 -4.0512,-4.36247 -2.5674,-5.76634 2.0173,-1.90861 4.809,4.04654 11.3847,3.61961 21.7958,-1.41509 4.5493,-2.2 8.4316,-4 8.6273,-4 0.1957,0 -0.02,1.31036 -0.4793,2.9119 -1.9401,6.76462 -8.4745,12.13056 -14.6764,12.05202 -1.5669,-0.0198 -5.3239,-0.91454 -8.3489,-1.98823 z m -0.5,-43.89043 c -5.7218,-2.47911 -10.7988,-12.51477 -10.9199,-21.58526 -0.064,-4.76888 0.527,-7.1982 2.8787,-11.83957 3.5583,-7.02254 5.6665,-8.66043 11.1473,-8.66043 3.5752,0 4.6624,0.55485 7.721,3.94026 5.7643,6.38045 7.0576,9.6738 7.0921,18.05974 0.024,5.74928 -0.5142,8.71816 -2.3038,12.71851 -1.284,2.87019 -2.8478,5.64057 -3.475,6.15642 -1.6945,1.39357 -9.8426,2.2059 -12.1404,1.21033 z m 7.5,-79.20369 c -3.1302,-1.24162 -9,-6.83604 -9,-8.57774 0,-1.74808 3.1537,-1.65484 5.5589,0.16437 3.2579,2.46418 8.6069,1.98224 13.7697,-1.43744 2.5692,-1.70183 4.6783,-3.73933 4.6867,-4.375 0.01,-0.72704 0.333,-0.65441 0.8718,0.1958 0.9471,1.49457 0.065,6.49988 -1.7385,9.87068 -2.5721,4.80616 -8.2844,6.48543 -14.1486,4.15933 z m 30.8724,-64.53458 c -2.3064,-2.77792 -1.1407,-19.77255 1.7501,-25.5137 1.9244,-3.82196 7.1556,-5.37068 11.7112,-3.4672 4.0907,1.70917 5.2059,3.48337 6.0559,9.63391 l 0.6219,4.5 -1.6872,-3.25 c -0.9279,-1.7875 -2.0397,-3.25 -2.4705,-3.25 -1.3483,0 -2.6315,3.30622 -3.2991,8.5 -1.2696,9.87723 -1.6554,11.45784 -3.1654,12.96785 -2.0355,2.03548 -7.7872,1.96243 -9.5169,-0.12086 z m -57.8292,-6.61973 c -2.9582,-1.497 -3.8117,-4.20442 -3.9435,-12.50938 -0.1743,-10.98035 4.2372,-17.12766 11.3356,-15.79599 3.9361,0.73842 8.5737,5.56966 8.5478,8.90484 -0.015,1.89291 -0.2853,1.75402 -2.0982,-1.07673 -2.252,-3.5166 -2.632,-3.69552 -4.8582,-2.28769 -1.2895,0.81551 -1.2583,1.73803 0.25,7.39882 2.132,8.0011 2.1731,11.55173 0.1666,14.41636 -1.7555,2.50635 -5.5638,2.89113 -9.4001,0.94977 z m -9.0432,-43.03092 c 0,-3.49998 4.8259,-12.4362 7.897,-14.62303 2.9454,-2.09728 8.103,-3.73668 8.103,-2.57562 0,0.39297 -1.2839,2.35426 -2.853,4.35841 -1.5692,2.00414 -4.5579,6.2314 -6.6416,9.3939 -3.962,6.01317 -6.5054,7.3606 -6.5054,3.44634 z m 89.9458,-2.51658 c -7.2488,-4.59837 -17.2765,-14.35375 -15.7497,-15.3221 3.2937,-2.08912 7.3634,-0.88291 11.4453,3.39234 6.5798,6.8913 11.6535,14.75 9.523,14.75 -0.4251,0 -2.7734,-1.26911 -5.2186,-2.82024 z"
           id="path3167-7"
           inkscape:connector-curvature="0"
           sodipodi:nodetypes="scscccccccssssssccsccscsscsssccsssscsscsssssssssscsssssssscsscsssscssscsscssccccccsssscsccsssccssssssssscsssscssssssssssssscsssscsssscsscscsssssccssssssscssscssscssssssscccssscssscccccssscsccccsssscssssscssssscsssccssssssssssssccsssscccscsscssssssscsscccccsssscsscssssssccsssccsssssccssccsccscssssccccssscsccssssssscccccsssscssscsss" />
      </g>
    </g>
  </g>
</svg>
